PathFileType	4	(X/Y/Z)	Run_500 02
DataRate	CameraRate	NumFrames	NumMarkers	Units	OrigDataRate	OrigDataStartFrame	OrigNumFrames
120	120	4	42	mm	120	35	128
Frame#	Time	LASI			RASI			LPSI			RPSI			RTH1			RTH2			RTH3			LTH1			LTH2			LTH3			RTB1			RTB2			LTB1			LTB2			LTB3			RCAL			RTOE			RMT5			LCAL			LTOE			LMT5			LACR			RACR			CLAV			C7			RUA1			RUA2			RUA3			RLEL			RMEL			LUA1			LUA2			LUA3			LLEL			LMEL			RFAsuperior			RFAradius			RFAulna			LFAsuperior			LFAradius			LFAulna			RTB3			
		X1	Y1	Z1	X2	Y2	Z2	X3	Y3	Z3	X4	Y4	Z4	X5	Y5	Z5	X6	Y6	Z6	X7	Y7	Z7	X8	Y8	Z8	X9	Y9	Z9	X10	Y10	Z10	X11	Y11	Z11	X12	Y12	Z12	X13	Y13	Z13	X14	Y14	Z14	X15	Y15	Z15	X16	Y16	Z16	X17	Y17	Z17	X18	Y18	Z18	X19	Y19	Z19	X20	Y20	Z20	X21	Y21	Z21	X22	Y22	Z22	X23	Y23	Z23	X24	Y24	Z24	X25	Y25	Z25	X26	Y26	Z26	X27	Y27	Z27	X28	Y28	Z28	X29	Y29	Z29	X30	Y30	Z30	X31	Y31	Z31	X32	Y32	Z32	X33	Y33	Z33	X34	Y34	Z34	X35	Y35	Z35	X36	Y36	Z36	X37	Y37	Z37	X38	Y38	Z38	X39	Y39	Z39	X40	Y40	Z40	X41	Y41	Z41	X42	Y42	Z42	

30	0.408333	947.569428	1074.89784	-755.645535	928.562951	1050.555959	-507.009631	769.883602	1115.056329	-693.21495	761.487498	1108.267705	-609.794146	787.771641	907.5445110000001	-462.628615	774.840379	793.1465909999999	-479.98242	650.5714390000001	735.927243	-523.945805	973.359356	900.6343900000001	-810.454435	1099.721562	849.219746	-790.717568	1113.72919	723.39679	-763.239516	527.193272	451.609269	-609.058943	462.802525	418.342337	-544.601777	1202.535052	524.103035	-694.696508	1146.454783	449.234991	-747.17504	1122.760917	336.63111	-679.837025	250.396926	305.686433	-634.0522999999999	336.388291	88.674128	-662.280024	269.943739	124.916608	-577.450149	974.613387	233.685904	-661.038696	1197.710004	160.394052	-658.272469	1120.315995	149.616982	-741.321442	913.174941	1547.107087	-815.6622180000001	972.1938709999999	1556.704875	-497.199196	994.045552	1491.039819	-630.471714	864.923211	1570.669086	-634.762053	979.764367	1470.286512	-409.672046	999.323129	1385.582291	-401.32294	936.7422800000001	1373.496412	-351.178193	966.0918840000001	1247.896445	-284.59924	916.052632	1212.986997	-346.801993	852.225502	1501.755037	-888.070751	833.435715	1436.049291	-902.174032	744.520524	1468.363486	-865.737925	646.913577	1347.006535	-946.716857	617.135896	1348.893663	-867.3806039999999	1047.971875	1294.256301	-343.407758	1104.180575	1361.590037	-499.004477	1156.030885	1325.906859	-458.974892	727.397514	1294.844013	-932.516693	863.988238	1226.330579	-833.253385	837.277673	1168.494528	-866.170525	410.634308	329.109928	-614.948244	
31	0.416667	947.373589	1076.635313	-755.702792	932.68825	1053.109356	-506.653485	771.770179	1117.65784	-690.590648	764.328399	1111.96431	-606.844296	789.680347	912.146849	-461.272399	774.58309	797.112274	-479.536054	649.624276	743.901976	-524.485033	969.5639629999999	897.059108	-808.158509	1095.81728	844.802462	-791.506155	1109.930858	718.845383	-761.24374	517.036163	463.072169	-610.811389	451.821429	431.923469	-546.372307	1209.39491	521.104956	-694.3241860000001	1161.967946	440.366194	-747.247131	1150.180306	326.215348	-679.428169	235.718215	328.91148	-635.787383	311.539227	107.424768	-661.613176	246.577092	147.589764	-577.879744	1013.635004	207.110064	-661.842187	1243.937584	159.885908	-652.985665	1170.228876	139.14695	-737.61269	912.114092	1549.021852	-816.246752	973.647964	1560.598685	-499.02633	994.71327	1493.578901	-631.778759	864.903872	1573.005665	-634.913159	981.051377	1475.357826	-411.301101	1001.193611	1391.000376	-402.282978	939.087313	1378.913035	-351.897701	969.1648719999999	1252.06296	-285.988905	916.855066	1217.991615	-346.971948	850.0414060000001	1505.066223	-887.639247	830.534105	1439.436728	-901.2912690000001	742.722912	1472.356521	-862.642894	642.278956	1351.603779	-942.558431	614.651473	1353.267999	-862.856046	1048.402329	1299.374278	-347.506057	1097.604989	1368.876688	-504.706512	1151.489776	1333.299421	-466.620978	722.80881	1300.563828	-930.124098	862.48335	1232.232061	-833.459509	835.423941	1174.27084	-865.714253	395.993548	345.103104	-616.724102	
32	0.425	947.055803	1076.948855	-756.757794	936.2522750000001	1055.474135	-505.991869	772.756152	1118.867879	-688.597674	766.711976	1114.842613	-604.60744	792.383746	915.6206120000001	-460.306598	775.99321	799.804629	-479.456552	650.693574	749.346219	-524.086169	965.394388	891.74473	-806.40716	1091.398819	838.551798	-792.431046	1105.081112	712.862089	-761.479386	509.463893	472.602613	-611.986932	442.302241	444.812373	-547.793424	1213.468104	516.239759	-694.326781	1174.899147	430.569353	-747.2938820000001	1175.326065	316.120715	-679.2352	219.172473	353.131813	-638.884887	288.390547	129.454187	-662.374912	224.424804	172.140552	-579.470718	1052.299691	182.428822	-662.29619	1286.528697	162.533405	-648.113622	1217.661844	131.96854	-733.573399	911.405025	1549.888561	-817.221043	975.362879	1563.540024	-500.237052	995.5060130000001	1495.579476	-633.078154	865.131481	1574.915436	-634.956044	982.160806	1479.207452	-412.530354	1002.853644	1394.765889	-403.089101	941.41775	1382.939952	-352.484417	971.017391	1255.087502	-287.048931	916.192598	1222.22598	-346.692885	848.385168	1506.787849	-887.313882	828.422044	1441.435262	-900.615588	741.338094	1474.360149	-860.020355	639.105647	1353.833834	-939.237118	613.151332	1355.125417	-859.39601	1048.039942	1302.532847	-351.186846	1091.07214	1373.637997	-509.488666	1146.395727	1337.697057	-473.560135	719.816951	1304.146738	-928.166873	862.227561	1236.54297	-833.491618	835.24204	1178.404829	-865.4008679999999	383.385727	360.423594	-618.405211	
33	0.433333	946.796955	1076.457571	-758.552152	939.4494539999999	1057.806127	-505.109146	772.990544	1118.94884	-687.127064	768.728482	1116.975121	-603.00225	795.753573	917.710877	-459.873749	778.671199	801.2517800000001	-479.787964	653.5094329999999	752.118117	-522.965816	961.594384	886.366898	-805.784325	1086.987811	831.26764	-793.32699	1098.53609	705.60821	-762.909455	504.236719	480.286661	-612.548046	434.34234	457.047369	-548.828022	1214.853035	509.663136	-694.593853	1185.133246	420.217066	-747.166683	1197.467991	306.711171	-678.908955	203.520096	378.924359	-642.590519	266.09	153.573033	-664.478531	202.796435	198.358462	-582.380948	1089.419066	160.573589	-662.202094	1323.976644	168.590747	-644.095961	1261.001571	128.462395	-729.611981	911.05462	1549.884788	-818.488392	977.251494	1565.625339	-500.875239	996.3846610000001	1497.195279	-634.300312	865.641552	1576.466024	-635.047089	983.5316350000001	1481.623721	-413.481212	1004.365476	1396.713344	-403.760732	943.557376	1385.581055	-352.927868	971.501413	1257.035413	-287.859984	914.081867	1225.731922	-346.098742	847.329087	1506.839413	-887.140631	827.1968000000001	1441.897167	-900.164385	740.424197	1474.288718	-858.053964	637.486931	1353.6013	-936.864164	612.701175	1354.398478	-857.02498	1046.97825	1303.649361	-354.379088	1084.965422	1375.723629	-513.472676	1141.161227	1339.032127	-479.652855	718.662676	1305.418723	-926.76343	863.335069	1239.201973	-833.363999	836.815684	1180.78954	-865.253617	373.743598	374.134626	-619.665554	
